<svg width="196" height="56" fill="none" xmlns="http://www.w3.org/2000/svg"><path d="M47.19 38.193c-1.599 0-2.383 1.072-3.572 2.197-1.19-1.125-1.974-2.197-3.572-2.197-3.41 0-6.13 4.939 3.572 10.68 10.096-5.992 6.577-10.68 3.571-10.68z" fill="#E04B6F"/><path d="M15.822 27.793a2.153 2.153 0 00-2.155 2.15c0 1.185.966 2.149 2.155 2.149a2.153 2.153 0 002.154-2.15c0-1.186-.966-2.149-2.154-2.149zM38.453 32.092a2.153 2.153 0 002.155-2.15c0-1.186-.966-2.149-2.154-2.149a2.153 2.153 0 00-2.155 2.15c0 1.185.966 2.149 2.154 2.149z" fill="#1B7AC5"/><path d="M27.14 46.553c-6.349 0-10.976-.864-14.143-2.638-3.71-2.078-5.512-5.48-5.512-10.395V21.848c0-8.858 5.916-16.359 14.01-18.788 6.168.076 9.454 4.522 9.454 7.734a4.48 4.48 0 01-4.48 4.469 3.36 3.36 0 01-3.357-3.35 2.464 2.464 0 012.463-2.457c.618 0 1.123-.503 1.123-1.12 0-.617-.505-1.12-1.123-1.12a4.702 4.702 0 00-4.703 4.693c0 3.079 2.51 5.589 5.602 5.589 3.705 0 6.72-3.008 6.72-6.704 0-2.325-1.17-4.82-3.13-6.685a11.473 11.473 0 00-2.648-1.874c10.714.142 19.388 8.886 19.388 19.608v11.672c0 .968-.072 1.874-.214 2.723a6.423 6.423 0 012.206.356c.072-.432.134-.868.172-1.319 3.01-.498 5.312-3.112 5.312-6.253 0-3.112-2.264-5.708-5.236-6.24v-.939C49.039 9.803 39.214 0 27.14 0 15.065 0 5.236 9.802 5.236 21.853v.94C2.264 23.322 0 25.918 0 29.03c0 3.141 2.302 5.755 5.312 6.254.423 4.815 2.63 8.369 6.582 10.585 3.514 1.969 8.498 2.922 15.241 2.922 3.624 0 6.734-.28 9.383-.84a11.525 11.525 0 01-1.384-2.007c-2.283.404-4.936.608-7.994.608zm21.899-21.469a4.116 4.116 0 012.991 3.947 4.11 4.11 0 01-2.991 3.948v-7.895zm-43.803 7.89a4.116 4.116 0 01-2.991-3.947 4.11 4.11 0 012.99-3.948v7.895z" fill="#1B7AC5"/><path d="M31.477 33.026a6.155 6.155 0 01-8.68 0 1.12 1.12 0 10-1.588 1.585 8.37 8.37 0 005.926 2.443c2.145 0 4.29-.816 5.925-2.443a1.12 1.12 0 00-1.583-1.585zM63.354 37.004c-.694-.021-1.194-.212-1.5-.575-.307-.359-.461-.912-.461-1.654v-.254c0-.742.154-1.288.46-1.64.307-.349.807-.545 1.501-.59v-1.398c0-.784.17-1.352.506-1.702.336-.349.883-.525 1.637-.525h1.837c.754 0 1.302.176 1.638.525.336.35.505.918.505 1.702v1.399h.949c.754 0 1.301.176 1.637.525.336.349.506.918.506 1.701v.254c0 .786-.17 1.352-.506 1.701-.336.35-.883.525-1.637.525h-.949v5.219c0 .657.147 1.166.443 1.528.297.362.74.54 1.332.54h.46c.777-.064 1.165.658 1.165 2.165v.667c0 .68-.127 1.177-.383 1.495-.256.318-.7.478-1.332.478-.062 0-.142.01-.244.031-.102.021-.194.031-.276.031-1.267 0-2.36-.121-3.278-.367-.918-.243-1.675-.636-2.267-1.176-.593-.54-1.03-1.252-1.317-2.134-.286-.88-.428-1.957-.428-3.23v-5.241h.002zM85.377 34.968a35.79 35.79 0 01-.214 1.081c-.062.277-.137.484-.229.62a.719.719 0 01-.398.288c-.174.054-.403.08-.69.08h-1.04c-.224 0-.572.02-1.04.065a9.13 9.13 0 00-1.347.222v9.612c0 .786-.17 1.353-.505 1.702-.336.349-.884.525-1.638.525H76.44c-.756 0-1.302-.176-1.638-.525-.336-.35-.505-.918-.505-1.702v-11.87c0-.742.17-1.298.505-1.67.336-.37.862-.662 1.578-.874a13.386 13.386 0 012.758-.445c1-.064 1.962-.095 2.88-.095.592 0 1.05.015 1.379.046.326.031.632.07.918.111.49.065.822.197.996.398.174.202.261.494.261.875 0 .17-.01.354-.03.556-.02.201-.052.418-.092.651l-.072.35zM92.088 38.34c.652 0 1.267.055 1.837.16.572.107 1.184.254 1.837.446v-.35a2.17 2.17 0 00-.108-.7 1.13 1.13 0 00-.443-.556c-.224-.16-.552-.287-.98-.383-.428-.096-1-.142-1.715-.142-.715 0-1.35.036-1.9.111-.55.075-.96.132-1.224.176-.408.065-.734.08-.98.046a1.153 1.153 0 01-.613-.253c-.164-.137-.291-.334-.383-.59a5.21 5.21 0 01-.23-.985l-.061-.349a7.422 7.422 0 01-.093-.571c-.02-.171-.03-.329-.03-.479 0-.489.133-.832.399-1.034.266-.202.744-.378 1.439-.525.346-.065.761-.122 1.24-.176.48-.052.975-.096 1.485-.127a43.43 43.43 0 012.788-.08c1.428 0 2.618.1 3.569.303.948.201 1.715.545 2.297 1.034.583.489 1.001 1.146 1.257 1.973.254.828.394 1.857.413 3.088v7.7c0 .446-.024.813-.077 1.1a1.818 1.818 0 01-.306.747 1.607 1.607 0 01-.642.51c-.276.126-.64.253-1.088.382-.144.044-.388.101-.734.176-.348.075-.767.15-1.257.223-.49.074-1.04.137-1.655.19-.612.053-1.267.081-1.962.081-1.02 0-2.016-.08-2.986-.238-.971-.16-1.827-.44-2.574-.843a4.834 4.834 0 01-1.792-1.64c-.45-.69-.675-1.553-.675-2.593v-.828c0-1.634.52-2.875 1.564-3.723 1.043-.856 2.504-1.28 4.383-1.28zm.488 5.475c0 .445.164.797.49 1.05.326.256.836.383 1.53.383.225 0 .434-.01.628-.031.194-.021.373-.052.535-.096v-2.069a1.984 1.984 0 00-.811-.383 3.827 3.827 0 00-.812-.095c-.53 0-.923.1-1.18.302a.98.98 0 00-.383.812v.127h.003zM120.45 46.934c0 .786-.169 1.352-.505 1.701-.336.35-.884.525-1.638.525h-1.837c-.757 0-1.302-.176-1.638-.525-.336-.349-.505-.918-.505-1.701V39.55c0-.742-.174-1.327-.52-1.751-.349-.424-.869-.636-1.563-.636-.267 0-.583.03-.951.096-.369.064-.705.16-1.011.287v9.387c0 .786-.169 1.352-.505 1.701-.336.35-.884.525-1.638.525h-1.837c-.756 0-1.301-.176-1.637-.525-.337-.349-.506-.918-.506-1.701V36.336c0-.783.179-1.432.535-1.942.356-.51.874-.923 1.546-1.241.652-.297 1.563-.566 2.726-.812 1.164-.243 2.459-.367 3.89-.367 2.653 0 4.585.595 5.789 1.782 1.205 1.19 1.807 2.79 1.807 4.804v8.374h-.002zM128.935 49.478c-2.143 0-3.788-.737-4.931-2.21-1.145-1.475-1.715-3.57-1.715-6.287v-.51c0-1.655.267-3.028.797-4.122.53-1.091 1.239-1.962 2.128-2.609a8.276 8.276 0 013.049-1.368 15.605 15.605 0 013.522-.398 19.1 19.1 0 011.745.08c.592.054 1.137.111 1.637.176.501.065.929.127 1.287.191.356.065.588.106.69.127.592.15 1.092.419 1.501.812.408.393.612 1.065.612 2.02v18.393c0 .784-.169 1.353-.505 1.702-.336.35-.884.525-1.638.525h-1.837c-.757 0-1.302-.176-1.638-.525-.336-.349-.505-.918-.505-1.702v-5.215c-1.474.612-2.872.92-4.199.92zm-.214-8.846c0 1.19.204 2.094.612 2.72.408.626 1.051.939 1.929.939.286 0 .597-.036.934-.111.336-.075.647-.197.933-.368v-6.84a4.244 4.244 0 00-1.011-.126c-.45 0-.878.07-1.286.207a3.293 3.293 0 00-1.088.605c-.316.266-.568.61-.749 1.034-.185.424-.277.923-.277 1.495v.445h.003zM141.462 34.521c0-.784.169-1.352.505-1.702.336-.349.884-.525 1.638-.525h1.837c.754 0 1.302.176 1.638.526.336.349.505.917.505 1.701v7.383c0 .763.169 1.352.505 1.766.336.414.832.62 1.486.62.204 0 .476-.015.812-.046.336-.03.647-.07.933-.11V34.52c0-.784.169-1.352.505-1.702.336-.349.884-.525 1.638-.525h1.837c.754 0 1.302.176 1.638.526.336.349.505.917.505 1.701v11.551c0 .787-.189 1.412-.567 1.878-.379.468-.894.763-1.546.892a9.651 9.651 0 01-.933.16c-.461.065-.986.132-1.579.207-.592.075-1.209.137-1.854.192-.642.051-1.219.08-1.73.08-1.389 0-2.573-.155-3.554-.46-.981-.308-1.787-.753-2.419-1.337a5.072 5.072 0 01-1.379-2.165c-.286-.858-.428-1.841-.428-2.943v-8.055h.007zM161.862 31.022c-.757 0-1.302-.176-1.638-.525-.336-.349-.505-.918-.505-1.701V27.68c0-.783.169-1.352.505-1.701.336-.35.884-.525 1.638-.525h2.143c.754 0 1.302.176 1.638.525.336.349.505.918.505 1.701v1.115c0 .786-.169 1.352-.505 1.701-.336.35-.884.525-1.638.525h-2.143zm5.911 15.149c.102.763.073 1.373-.092 1.83-.164.458-.592.782-1.286.97a3.363 3.363 0 01-.904.176c-.276.01-.607.016-.996.016a7.611 7.611 0 01-1.899-.223 3.067 3.067 0 01-1.471-.858c-.408-.424-.724-1.024-.951-1.797-.224-.774-.336-1.798-.336-3.073v-8.688c0-.784.17-1.353.506-1.702.336-.35.883-.525 1.638-.525h1.836c.755 0 1.302.176 1.638.525.336.35.505.918.505 1.702v8.655c0 .445.035.742.107.892.073.15.219.222.443.222.02 0 .05-.005.093-.015a.405.405 0 01.092-.016c.53-.106.878.458 1.04 1.686l.037.223zM177.515 46.838c.02.383.005.7-.044.954-.053.254-.137.458-.262.605a1.221 1.221 0 01-.49.35c-.204.085-.471.16-.797.222-.246.044-.54.085-.888.127a8.574 8.574 0 01-1.073.064c-.714 0-1.354-.095-1.914-.287a3.098 3.098 0 01-1.409-.97c-.378-.455-.669-1.065-.873-1.83-.204-.763-.307-1.72-.307-2.866V27.681c0-.783.17-1.352.506-1.701.336-.35.883-.525 1.638-.525h1.836c.755 0 1.302.176 1.638.525.336.349.505.918.505 1.701V43.18c0 .445.035.742.107.892.073.15.22.222.446.222h.276c.408 0 .685.176.827.525.142.35.224.77.246 1.257l.032.763zM177.944 40.474c0-1.505.204-2.795.612-3.866.408-1.07.991-1.952 1.745-2.64.754-.69 1.675-1.193 2.758-1.513 1.082-.318 2.307-.479 3.676-.479 1.369 0 2.598.16 3.691.479 1.093.318 2.016.822 2.773 1.513.754.69 1.336 1.57 1.745 2.64.408 1.07.612 2.36.612 3.866v.51c0 1.507-.204 2.8-.612 3.88-.409 1.082-.991 1.964-1.745 2.641-.757.68-1.68 1.177-2.773 1.495-1.093.318-2.322.478-3.691.478-1.369 0-2.594-.16-3.676-.478-1.083-.318-2.002-.817-2.758-1.495-.757-.677-1.339-1.56-1.745-2.64-.408-1.081-.612-2.377-.612-3.882v-.51zm11.18.03c0-1.271-.204-2.2-.612-2.784-.408-.585-1.001-.874-1.777-.874-.757 0-1.339.287-1.745.858-.408.572-.612 1.495-.612 2.77v.478c0 1.273.204 2.201.612 2.785.408.585.991.874 1.745.874.776 0 1.369-.302 1.777-.907.408-.605.612-1.523.612-2.754v-.445z" fill="#1B7AC5"/><path d="M61.393 3.163c0-.764.175-1.308.521-1.628.347-.32.891-.575 1.627-.761a31.912 31.912 0 012.366-.217c.983-.06 2.059-.093 3.224-.093 1.393 0 2.645.078 3.763.232 1.116.156 2.062.448 2.84.884a4.471 4.471 0 011.797 1.815c.42.776.629 1.784.629 3.024v.373c0 1.986-.706 3.403-2.119 4.25 1.106.433 1.944 1.086 2.518 1.953.574.869.861 2.046.861 3.536v.373c0 1.136-.23 2.119-.691 2.946-.462.826-1.13 1.504-2.011 2.031-.881.527-1.967.915-3.255 1.164-1.287.25-2.754.373-4.391.373-1.106 0-2.177-.043-3.21-.123a36.253 36.253 0 01-2.348-.247c-.716-.207-1.25-.476-1.597-.807-.35-.332-.524-.882-.524-1.645V3.163zm7.83 5.832c.964 0 1.66-.139 2.09-.418.429-.28.643-.812.643-1.598v-.217c0-.58-.22-1.023-.661-1.333-.442-.31-1.07-.466-1.89-.466-.349 0-.643.005-.89.015-.245.01-.554.035-.92.078v3.939h1.629zm.77 9.831c1.042 0 1.791-.201 2.24-.604.45-.404.676-1.029.676-1.878v-.34c0-.827-.224-1.457-.676-1.893-.452-.434-1.198-.65-2.24-.65h-2.396v5.242c.287.043.526.068.72.078l.537.03c.165.01.332.015.507.015h.631zM97.692 20.502c.244 1.447-.277 2.296-1.567 2.543-.41.083-1.066.167-1.967.247-.9.083-1.904.124-3.01.124-1.616 0-3.061-.151-4.329-.449-1.27-.3-2.346-.781-3.224-1.441-.88-.66-1.55-1.515-2.011-2.558-.462-1.044-.692-2.322-.692-3.831v-.497c0-1.467.195-2.724.584-3.768.39-1.043.946-1.902 1.675-2.573.726-.673 1.602-1.162 2.625-1.474 1.023-.31 2.181-.466 3.471-.466 1.353 0 2.553.138 3.609.418 1.053.28 1.949.738 2.687 1.381.736.64 1.295 1.49 1.675 2.543.379 1.053.569 2.356.569 3.909v.403c0 .766-.17 1.344-.507 1.737-.337.393-.886.59-1.642.59h-7.893c.287.516.764.869 1.427 1.053.667.186 1.622.28 2.873.28.511 0 .936-.005 1.275-.015.337-.01.629-.026.876-.046.244-.02.471-.04.676-.063l.676-.063c.716-.083 1.213.015 1.49.295.277.28.467.678.569 1.195l.085.526zm-7.983-9.398c-.656 0-1.178.182-1.567.542-.39.363-.634.935-.736 1.721h4.544c-.02-.786-.23-1.358-.629-1.72-.4-.361-.938-.543-1.612-.543zM110.314 6.359c2.046 0 3.643.662 4.791 1.986 1.146 1.323 1.719 3.215 1.719 5.675v.497c0 1.736-.267 3.178-.798 4.327-.532 1.147-1.243 2.061-2.134 2.744-.891.683-1.919 1.16-3.087 1.427-1.167.27-2.375.403-3.623.403-.532 0-1.071-.02-1.612-.063a31.82 31.82 0 01-2.917-.358 8.335 8.335 0 01-1.028-.232c-.574-.166-1.019-.418-1.335-.76-.317-.34-.477-.873-.477-1.598V1.86c0-.66.142-1.137.429-1.426.287-.29.756-.434 1.413-.434h2.458c.653 0 1.125.146 1.412.434.287.29.429.766.429 1.426v5.706c.881-.476 1.675-.797 2.381-.96a8.77 8.77 0 011.979-.247zm.062 8.002c0-.95-.204-1.679-.614-2.188-.409-.507-1.043-.761-1.904-.761a4.62 4.62 0 00-.95.108c-.35.073-.667.192-.951.358v6.638a5.384 5.384 0 001.228.154c.88 0 1.632-.31 2.258-.93.624-.62.936-1.603.936-2.946v-.434h-.003zM135.036 20.502c.245 1.447-.277 2.296-1.567 2.543-.409.083-1.065.167-1.966.247a33.02 33.02 0 01-3.01.124c-1.617 0-3.062-.151-4.329-.449-1.271-.3-2.346-.781-3.224-1.441-.881-.66-1.55-1.515-2.012-2.558-.461-1.044-.691-2.322-.691-3.831v-.497c0-1.467.195-2.724.584-3.768.389-1.043.946-1.902 1.674-2.573.727-.673 1.602-1.162 2.626-1.474 1.023-.31 2.181-.466 3.471-.466 1.352 0 2.553.138 3.608.418 1.053.28 1.949.738 2.688 1.381.736.64 1.295 1.49 1.674 2.543.38 1.053.569 2.356.569 3.909v.403c0 .766-.17 1.344-.506 1.737-.337.393-.886.59-1.642.59h-7.894c.287.516.764.869 1.428 1.053.666.186 1.622.28 2.872.28.512 0 .936-.005 1.275-.015a17.426 17.426 0 001.552-.109l.677-.063c.716-.083 1.213.015 1.49.295.277.28.466.678.569 1.195l.084.526zm-8.477-15.6l-3.745.466a2.308 2.308 0 01-.769 0c-.225-.04-.419-.227-.584-.56l-.122-.246c-.165-.35-.127-.615.107-.792.235-.176.507-.325.814-.448l2.333-.993c.696-.29 1.35-.434 1.966-.434.327 0 .667.043 1.013.124.347.083.667.186.951.31l2.149.93c.327.146.624.315.891.511.267.197.327.472.184.822l-.122.31c-.122.29-.369.439-.736.449a6.448 6.448 0 01-1.013-.046l-3.317-.403zm.492 6.202c-.656 0-1.178.182-1.567.542-.39.363-.634.935-.736 1.721h4.544c-.02-.786-.23-1.358-.629-1.72-.399-.361-.936-.543-1.612-.543z" fill="#E04B6F"/></svg>