<svg width="64" height="32" fill="none" xmlns="http://www.w3.org/2000/svg"><path d="M1.691 0H0v32h1.691V0zM19.39 15.691c-.343-.295-.778-.574-1.306-.84a4.767 4.767 0 0 0 1.014-.71c.271-.256.51-.597.71-1.026.201-.427.304-.952.304-1.572 0-.652-.156-1.289-.466-1.91-.31-.622-.815-1.131-1.515-1.528-.7-.396-1.64-.593-2.82-.593-1.165 0-2.101.2-2.807.593-.707.396-1.215.906-1.527 1.527a4.238 4.238 0 0 0-.466 1.911c0 .606.104 1.123.314 1.55.209.427.453.774.734 1.036.28.265.63.514 1.05.745-.545.249-.992.518-1.341.805-.349.287-.66.675-.932 1.166-.273.488-.408 1.092-.408 1.806 0 .558.096 1.119.291 1.677.195.558.501 1.075.92 1.55.418.474.97.853 1.654 1.14.683.288 1.523.432 2.516.432.994 0 1.837-.144 2.529-.431.692-.288 1.246-.667 1.666-1.142.42-.474.723-.99.91-1.55a5.25 5.25 0 0 0 .279-1.676c0-.714-.131-1.314-.396-1.794a4.149 4.149 0 0 0-.907-1.166zm-6.829-2.715c-.248-.396-.373-.875-.373-1.433 0-.667.162-1.168.488-1.502.326-.335.73-.563 1.21-.688a5.645 5.645 0 0 1 1.423-.187c.483 0 .959.062 1.433.187a2.55 2.55 0 0 1 1.2.688c.327.334.49.835.49 1.502 0 .559-.126 1.037-.374 1.433a2.435 2.435 0 0 1-1.072.92c-.466.217-1.026.326-1.677.326-.652 0-1.21-.11-1.677-.327a2.435 2.435 0 0 1-1.071-.92zm6.35 6.477c-.07.35-.221.71-.453 1.084-.234.374-.598.688-1.096.944-.497.257-1.18.384-2.05.384-.854 0-1.532-.127-2.028-.384-.497-.256-.867-.57-1.107-.944a3.18 3.18 0 0 1-.466-1.084 4.44 4.44 0 0 1-.104-.804c0-.622.143-1.145.43-1.572.288-.427.707-.754 1.259-.98.552-.225 1.223-.338 2.015-.338.807 0 1.484.113 2.028.339.544.225.959.552 1.246.979.287.427.431.952.431 1.572 0 .187-.035.456-.105.804z" fill="#59C0A0"/><path d="M30.613 12.01a6.103 6.103 0 0 0-2.634-.584c-.482 0-.993.035-1.537.105a7.967 7.967 0 0 0-1.537.349c-.483.164-.875.392-1.176.687-.304.296-.454.684-.454 1.166V29.09h1.677v-6.172a10.813 10.813 0 0 0 1.734.532c.427.092.81.14 1.154.14 1.196 0 2.206-.239 3.03-.711a4.605 4.605 0 0 0 1.875-2.028c.427-.878.64-1.915.64-3.111 0-1.585-.256-2.839-.77-3.765-.512-.921-1.18-1.578-2.002-1.966zm.582 7.969c-.279.653-.695 1.162-1.245 1.527-.552.365-1.254.548-2.108.548-.483 0-.963-.066-1.445-.2a6.077 6.077 0 0 1-1.445-.617v-7.2c0-.34.3-.606.897-.792.597-.187 1.301-.28 2.108-.28 1.01 0 1.78.222 2.307.666.527.443.884 1.028 1.071 1.759.187.73.28 1.514.28 2.354 0 .837-.14 1.582-.42 2.235zm6.123-8.343h-1.677v11.627h1.677V11.636zm0-4.124h-1.677v1.841h1.677v-1.84zm12.3 4.124h-1.935l-3.31 4.415-3.237-4.415h-2.12l4.227 5.78-4.345 5.849h1.889l3.413-4.54 3.32 4.54h2.144l-4.306-5.872 4.26-5.757zm10.273 2.889c-.326-.948-.866-1.701-1.62-2.26-.753-.558-1.75-.839-2.994-.839-1.584 0-2.83.501-3.74 1.503-.909 1.001-1.362 2.504-1.362 4.509 0 1.367.217 2.508.652 3.425.435.918 1.057 1.605 1.864 2.063.807.458 1.763.688 2.865.688.807 0 1.55-.07 2.225-.21a8.214 8.214 0 0 0 1.853-.605v-1.724a7.039 7.039 0 0 1-2.399.874 9.029 9.029 0 0 1-1.584.127c-1.197 0-2.125-.369-2.786-1.106-.66-.737-.99-1.814-.99-3.226h8.482c.014-1.199-.14-2.27-.466-3.219zm-7.643.314c.248-.691.626-1.175 1.13-1.457.505-.279 1.138-.418 1.9-.418 1.101 0 1.922.287 2.458.862.499.535.784 1.33.858 2.376h-6.638c.06-.533.156-.989.292-1.363zm11.75-9.019h-1.677v17.445h1.677V5.82z" fill="#F2F7FB"/></svg>