<svg width="466" height="355" fill="none" xmlns="http://www.w3.org/2000/svg"><path fill-rule="evenodd" clip-rule="evenodd" d="M214.068.015C265.727.43 322.694 5.232 353.875 46.45c30.597 40.446 16.563 95.257 4.69 144.575-11.617 48.258-27.809 96.101-69.211 123.44-49.435 32.642-110.418 52.613-165.869 31.788-60.808-22.837-110.592-75.711-121.63-139.761-10.52-61.035 25.195-119.13 69.57-162.306C108.97 7.656 161.705-.404 214.068.016zM403.315 197.933c27.174-1.255 51.068 17.817 59.517 43.692 8.493 26.01-.493 54.117-22.106 70.879-24.044 18.648-58.25 28.903-81.959 9.831-21.784-17.525-9.596-49.567-.167-75.897 8.198-22.894 20.438-47.384 44.715-48.505z" fill="#F9F9F9"/><path d="M260.442 107.174c2.059-.206 4.501.735 6.412 2.324.059-30.856 27.473-45.651 54.711-47.68 14.619-1.09 29.649 3.058 41.739 11.353 11.089 7.618 18.031 19.09 21.825 31.914.883 2.912 1.5 5.854 1.971 8.795 6.118-2.206 10.765 6.148 11.089 11.648.265 4.265-.265 8.825-3.736 11.678-2.294 1.882-5.471 3.5-8.147 2.059-3.824 16.207-14.149 30.296-30.679 37.915-4.942 2.294-10.384 3.735-15.943 4.471.677 3.765 6.265 6.853 8.766 8.794 4.265 3.324 8.324 6.854 12.001 10.854 5.794 6.266 8.736 14.325 8.5 22.885-.559 18.766-19.384 31.149-36.179 33.326-17.208 2.206-35.591-7.03-41.268-24.355-6.354-19.413 5.441-39.945 18.795-53.24a9.111 9.111 0 00-.412-.088c-13.912-3.53-25.443-10.883-33.973-22.678-4.206-5.824-6.089-13.237-8.648-19.855-1.853-.353-3.647-1.059-5.029-1.971-5.53-3.794-10.031-10.089-10.884-16.854-.706-5.942 3.648-10.707 9.089-11.295z" fill="#231F20"/><path d="M392.63 134.823c2.706-1.912 3.294-5.383 3.382-8.501.059-1.764-.353-3.617-.735-5.323-.912-3.971-4.295-5.295-7.824-5.001.941 7.089.735 14.148-.588 20.884 2.059.677 4.206-.941 5.765-2.059zM312.976 180.768c-13.972 13.472-25.502 33.827-18.296 53.622 3.118 8.56 11.913 14.884 20.002 18.002 8.824 3.382 18.619 1.882 27.238-1.324 16.736-6.265 29.355-22.649 21.413-40.974-3.735-8.618-12.677-14.913-19.796-20.472-2.353-1.853-5.177-4.648-5.412-7.765-8.383.941-17.06.352-24.972-1.324-.089.059-.118.176-.177.235z" fill="#F5E0CD"/><path d="M332.301 182.239c1.941-.059 3.883-.177 5.795-.412 0 .177.059.324.088.5-1.912.206-4.03-.059-5.883-.088zM312.976 180.768c.088-.059.118-.176.147-.235a82.209 82.209 0 0017.972 1.735c-.176 0-.353.03-.529.059-2.618.324-5.383.853-7.707 2.177-4.294 2.471-7.089 6.5-7.706 11.53-1 8.236 1.059 16.854 9.706 19.502 8.942 2.735 18.767 1.059 27.885.5 3.824-.236 8.177-.588 12.383-.294 3.442 15.972-8.236 29.708-23.237 35.326-8.618 3.236-18.384 4.706-27.237 1.324-8.089-3.089-16.914-9.442-20.002-18.002-7.177-19.825 4.353-40.15 18.325-53.622zM255.177 123.381c3.089 7.707 11.883 14.325 19.502 8.942 1.029-.706 2.529.971 1.853 1.971-1.441 2.176-3.912 3.059-6.471 3.147 2.323 6.148 4.177 12.619 7.677 18.178 4.088 6.501 10.589 12.089 17.06 16.001 13.383 8.089 29.12 8.766 44.063 6.324 14.765-2.412 27.649-9.589 36.65-21.913 8.236-11.295 10.118-25.561 8.736-39.18-1.442-13.972-7.266-27.855-17.737-37.238-11.03-9.883-25.826-14.06-40.268-14.266-25.943-.324-57.358 14.972-58.829 44.592 1.677 1.559 2.854 3.588 2.824 5.647 0 .265-.206.471-.47.383-.089-.03-.206-.059-.324-.089-.235-.058-.588-.529-.265-.735-.059.029-1.882-2.677-1.735-2.471-2.177-3.176-5.501-3.412-8.677-2.353-5.295 1.794-5.265 8.913-3.589 13.06z" fill="#F5E0CD"/><path d="M258.795 110.38c3.177-1.059 6.501-.794 8.677 2.353-.117-.206 1.706 2.5 1.736 2.471-.294.206.029.676.264.735.118.03.206.059.324.088.265.089.471-.117.471-.382.029-2.059-1.148-4.088-2.824-5.647.559-11.237 5.441-20.414 12.677-27.473-8.147 20.472-6.853 45.827 5.266 63.034 13.177 18.737 38.12 24.149 59.593 21.561 11.324-1.353 21.707-5.442 29.737-13.913 2.265-2.382 4.471-4.971 6.442-7.736-1.412 3.706-3.235 7.265-5.647 10.56-8.972 12.324-21.855 19.501-36.65 21.913-14.943 2.442-30.68 1.765-44.063-6.324-6.471-3.912-12.972-9.5-17.06-16.001-3.5-5.559-5.383-12.03-7.677-18.178 2.559-.088 5.03-.971 6.471-3.147.676-1-.853-2.706-1.853-1.971-7.619 5.383-16.413-1.235-19.502-8.942-1.676-4.147-1.706-11.266 3.618-13.001z" fill="#F5E0CD"/><path d="M299.593 131.882c7.353-4.559 18.001-2.236 25.56.47 4.648 1.677 8.913 4.413 13.355 6.619 6.588 3.235 12.912 2.941 20.001 3.117 3.442.089 7.766 1.589 9.677 4.383 2.03 2.353 2.324 5.883.559 9.089-4.412 8.06-15.266 12.648-23.649 14.766-16.648 4.206-42.091-3.412-50.71-19.443-3.882-7.236-1.706-14.677 5.207-19.001z" fill="#231F20"/><path d="M346.861 144.442c-5.589-1.089-10.442-3.677-15.442-6.324-.942-.5-2.03-1.03-3.236-1.53 1.03 6.059 6.118 9.501 11.678 11.177 4.441 1.353 14.06 1.412 17.295-3.382-4.235-.03-8.471.412-10.295.059z" fill="#fff"/><path d="M336.154 169.238c-2.5-6.56-6.824-9.736-14.118-9.707-2.707 0-8.413 1.059-10.031 3.618 6.413 3.236 13.913 5.324 20.943 6.001 1.089.058 2.148.088 3.206.088z" fill="#F6A7C2"/><path d="M310.446 162.325c.089.059.177.089.265.118 0-.059 0-.147.059-.206 2.294-4.706 9.324-6 13.972-5.118 6.53 1.265 11.736 5.324 12.501 12.06 5.559-.206 10.971-1.765 16.031-4.147 3-1.412 5.941-3.089 8.677-4.971 3.353-2.324 10.383-10.795 2.941-14.178-.265-.118-.441-.382-.5-.677-1.706-.529-3.736-.735-5.853-.823-1.706 6.706-13.56 6.5-18.62 5.324-6.794-1.559-12.442-6.736-13.295-13.795-11.53-4.442-30.443-7.178-31.591 8.588-.588 7.736 9.766 14.737 15.413 17.825z" fill="#FACBD6"/><path d="M259.06 117.969c2.118.323 4.382 0 6.236 1.382 2.235 1.677 4.118 3.471 5.265 6.089.794 1.824-1.5 2.294-2.206.706-1.03-2.294-2.177-4.147-4.265-5.589-1.5-1.029-3.53-.823-5.148-1.647-.441-.176-.529-1.029.118-.941zM360.421 119.263c2.147-3.383 6.589-7.412 10.913-5.294 3.53 1.735 6.059 5.294 6.442 9.294.029.383-.501.265-.589 0-1.206-3.265-2.588-6.177-6.059-7.324-1.5-.5-2.971-.029-4.295.853 1.942.236 3.795 1.324 5.148 3.295.529.764-.118 1.823-.941 1.059-2.912-2.736-5.824-2.442-8.501.294-1.03 1.059-2.765-1.118-2.118-2.177zM326.918 110.262c-.147-4.029-1.941-9.795-6.706-10.206-3.912-.324-7.854 1.411-10.207 4.676-.235.324.294.471.5.295 2.677-2.177 5.324-3.971 8.883-3.148 1.53.353 2.559 1.53 3.265 2.971-1.794-.794-3.941-.853-6.059.177-.853.382-.824 1.647.265 1.411 3.882-.853 6.265.912 7.177 4.648.353 1.382 2.912.441 2.882-.824zM343.037 124.822c2.059-1.941 5.648-1.912 6.677 1.148.5 1.47.295 3.088-.794 4.265-1.029 1.088-2.677 1.647-3.912.529-.265-.235-.441-.941.118-.941 1.059 0 1.794.147 2.676-.588.883-.736 1.089-1.912.853-2.971-.558-2.471-3.706-1.971-5.206-.883-.294.177-.676-.323-.412-.559z" fill="#231F20"/><path d="M354.097 196.358c-1.294-1.295-2.647-2.53-4.177-3.677-2.235-1.677-4.765-3.177-6.824-5.03-.265-.235-.5-.5-.735-.765h.088c12.884 2.53 23.031.824 30.973-10.824 2.295-5.236 3.824-10.06 4.059-16.207.236-6.736-.97-13.56-2.382-20.12-.206-.911-.5-2.353-.353-3.529-1.883-.442-3.471-2.648-4.353-4.177-1.883-3.206-1.589-6.56.176-9.56 1.5-5.177 5.648-11.707 11.06-11.56 1.382.03 3.177 1.295 3.53 2.707.264 1.117-.118 1.911-.765 2.617 2-.382 3.971-.058 4.941 1.912 1.589 3.206-1.264 3.53-3.706 4.412 3.148-.088 6.677.53 7.383 3.383.677 2.765-1.824 3.412-4.265 3.53 2.059 1.118 3.647 2.559 2.118 5.294-1.794 3.207-7.324 2.442-11.06 1.442 5.001 15.825 6.971 35.297-3.765 49.21-4.883 6.412-13.619 10.853-21.943 10.942z" fill="#231F20"/><path d="M380.04 113.174c-2.294.647-4.588 3.177-6.353 5.942 1.5-.941 3.294-1.265 4.677.235.147.177.294.353.47.559-.088-.206-.117-.412-.058-.588.264-.824.411-1.647 1.117-2.236.442-.47.942-.853 1.5-1.176 1.618-.677 1.177-1.588-1.353-2.736z" fill="#F5E0CD"/><path d="M384.717 135.029s8.089-1.118 3.677-4.03c-.618-.411-2.5-1.029-3.383-1.588-.558-.353-1.088-1.706-.029-1.735 1.353-.03 2.677.029 4-.059.471-.089.942-.206 1.442-.294.205-2.265-.853-3.177-3.089-2.707-1.559-.205-3.177-.117-4.706.206-.824.177-1.53-.794-1.206-1.559.706-1.588 2.353-2.206 3.853-2.823.677-.265 1.412-.383 2.118-.559-.941-1.677-2.206-2.177-3.765-1.5-1.383.411-2.5 1.176-3.412 2.235-.353.353-.824.118-1.147-.265.353.589.529 1.265.206 1.971-1.118 2.265-3.001 3.324-2.795 6.265.059.942-1.059.353-1.235-.176-.353-1.059-.824-2.618-.118-3.706.412-.618.559-.765 1.059-1.324.53-.471.971-1 1.383-1.559-.824-1.529-1.736-1.824-2.795-.882-4.912 3.029-5.118 11.795.236 14.266.264-.589.735-1.03 1.529-1.148.059-.294.265-.5.735-.382 2.559.794 4.736 1.647 7.442 1.353z" fill="#F5E0CD"/><path d="M267.972 142c-1.412-.47-2.676-1.323-3.618-3-.794-1.412-.823-2.765-.735-4.353.235-4.412-2.235-4.089-4.324-6.413-1.206-1.323-2-3.706.235-4.382 2.442-.706 4.53.647 6.442 2.088-1.323-2.853-3.471-6.53-.118-7.648 3.177-1.059 5.442 4.354 6.766 7.854.029-3.441-2.265-9.648 1.235-9.707 3.324-.059 4.412 4.265 4.912 8.119.089-2.089-.206-4.207.265-6.324.235-1.118 1.235-1.854 2.324-1.354 3.912 1.795 3.941 6.501 3 10.854.529-.853 1.294-1.47 2.647-1.529 2.059-.118 2.501 2.971 2.618 4.383.736 7.059-7.559 15.677-14.648 13.501.059.382.059.764-.03 1.117-3.029 13.296-7.706 26.208 7.531 34.15 8.471 4.442 18.56 4.295 27.825 4.824 1.795.088 4.648 3.383 1.824 4.206-13.589 3.971-28.649.383-39.974-7.883-11.089-8-11.736-27.708-4.177-38.503z" fill="#231F20"/><path d="M288.003 131.176c.177-4.736-2.529-1.089-3.471 1.118-.558 1.294-1.323 2.117-2.529 2.676-.618.294-1.794-.294-1.5-1.117a191.18 191.18 0 001.941-5.766c.441-1.47.706-2.971.765-4.5.118-1.588-2.53-7.589-2.942-2.971-.294 3.442.618 6.148-1.058 9.383-.412.794-1.471-.206-1.559-.706-.383-2.47-.618-4.941-1.265-7.383-.147-.617-.353-1.206-.53-1.823-.676.058-1.382.117-2.059.147.059.912.206 1.794.353 2.706.353 2.029 1.059 4.941-.559 6.559-.5.5-1.353.236-1.676-.382-.677-1.353-.765-1.559-1.265-3-.324-.824-.647-1.618-.971-2.442-.529-2.265-1.617-2.706-3.294-1.323.647 2.294 2.206 3.912 2.5 6.382.118.942-1.118.795-1.559.471-.412-.206-.794-.5-1.147-.824-6.824-6.706-5.765-1.294-3.794.059.941.647 2.5 1.471 3 2.589.5 1.088.735 1.647.588 2.912-.47 3.882 2.089 5.383 4.971 6.353.471.059.912.206 1.353.412.441.118.883.265 1.294.382.236.059.412.206.559.353.736.177 1.5.353 2.236.383 1.323.059 2.941-.03 4.5-.383 3.883-2.176 6.971-6.265 7.118-10.265z" fill="#F5E0CD"/><path d="M291.739 234.655c10.913-7.912 23.561-11.883 36.738-13.972 12.148-1.912 28.12-3.382 39.533 2.353.059.03.118.118.176.177 5.825 3.765 3.648 13.119 1.03 18.207-5.147 10.06-17.384 16.59-27.679 19.414-11.736 3.206-25.208.029-35.885-5.236-6.089-3-15.737-11.295-14.06-19.355-.324-.529-.382-1.206.147-1.588z" fill="#231F20"/><path d="M300.475 249.362c3.589 3.353 8.471 5.324 12.972 6.942 8.471 3.03 18.031 3.941 26.825 1.941 11.766-2.647 39.21-19.266 27.179-34.709a56.65 56.65 0 00-4.5-1.235c1.382 1.883 1.706 4.736.882 6.795-.088.206-.323 0-.294-.177.147-1.294.147-2.618-.176-3.882-.353-1.353-1.148-2.206-2.089-3.089-4.647-.971-9.501-1.382-14.383-1.412.559.559.97 1.383 1.206 2.089.529 1.588.47 3.529.117 5.147-.088.412-.588 0-.559-.294.324-2.324.03-5.648-2.412-6.559a.88.88 0 01-.382-.353c-8.089.176-16.325 1.559-24.208 3.853-.147.676-.47 1.265-.559 1.971-.147 1.323.53 2.882.971 4.088.206.5-.382.618-.588.177-.559-1.265-1.059-2.559-1.265-3.942-.118-.618 0-1.265.118-1.912a97.792 97.792 0 00-16.914 7.001c-.029.412-.029.823.059 1.294.206 1 .677 1.941 1.147 2.824.265.47-.353.735-.617.323-.589-.853-1.53-2.323-1.912-3.735-2.559 1.382-5.06 2.882-7.383 4.471-1.089 4.53 3.941 9.736 6.765 12.383z" fill="#FCE3EE"/><path d="M368.275 229.86c-1.53.559-2.942-.058-4.324-1.058.706-2.03.353-4.707-.971-6.472 1.53.353 3.03.765 4.501 1.236 1.47 1.882 2.323 3.765 2.706 5.647-.589.147-1.236.383-1.912.647z" fill="#FCE3EE"/><path d="M322.389 242.479c-2.471-.412-5.324-.529-7.648-1.559-4.942-2.147 1.559-4.206 3.353-4.588 3.236-.706 6.883-.765 9.442-3.177 1.912-1.794 4.471-5.942 7.471-5.677 3.383.294 4.971 2.677 7.354 4.677 2.765 2.324 6.559 2.882 9.265-.059 1.412-1.53 3.206-5.059 5.501-5.059 3.559 0 3.971 2.441 6.265 4.059 1.353.971 3 1.265 4.618.882.677-.176 1.588-.706 2.441-1.059.706 11.707-16.207 22.679-26.825 26.385-6.854-4.765-13.001-13.442-21.237-14.825z" fill="#FCE3EE"/><path d="M293.651 237.008c2.324-1.588 4.824-3.059 7.383-4.471.382 1.412 1.324 2.883 1.912 3.736.294.412.882.147.617-.324-.47-.882-.941-1.823-1.147-2.824a4.86 4.86 0 01-.059-1.294c5.295-2.765 10.972-5.177 16.914-7-.147.647-.236 1.264-.118 1.912.206 1.382.706 2.647 1.265 3.941.206.412.794.294.588-.176-.471-1.206-1.118-2.736-.971-4.089.089-.706.412-1.324.559-1.971 7.883-2.294 16.119-3.676 24.208-3.853a.883.883 0 00.383.353c2.441.882 2.735 4.236 2.412 6.559-.03.295.47.706.558.295.353-1.618.412-3.56-.117-5.148-.236-.706-.647-1.5-1.206-2.088 4.912 0 9.736.441 14.383 1.411.942.854 1.765 1.736 2.089 3.089.294 1.147.323 2.294.235 3.471-2.941-2.177-5.765-5.559-9.265-2.206-2.471 2.382-5.501 8.236-9.795 5.265-2.501-1.735-4.236-4.236-7.03-5.53-6.413-2.912-8.736 6.148-14.06 7.236-3.707.765-9.295.853-11.913 4.03-2.824 3.441 4.118 5.883 6.03 6.236 4.559.823 8.53 1.529 12.501 4.206 4.147 2.765 7.236 6.647 10.971 9.912.118.089.236.206.353.294a8.286 8.286 0 01-1.088.265c-8.795 1.971-18.354 1.089-26.826-1.941-4.53-1.618-9.383-3.589-12.971-6.942-2.795-2.647-7.825-7.853-6.795-12.354z" fill="#FCE3EE"/><path d="M308.74 178.827c.442-.647 1.236-.235 1.618.353 2.883.176 5.736.382 8.619.441.617 0 1.029.588 1.088 1.147.647 5.971 4.559 10.148 10.648 10.089 6.53-.029 4.412-6.353 4.059-10.354-.029-.382.235-.617.588-.647 1.412-.117 3.059-.588 4.354.177.029.029.088.059.117.117.059.03.118.03.177.089 5.412 5.059 17.383 11.442 15.001 20.913-2.324 9.148-12.472 12.207-20.737 12.884-9.766.794-19.266-4.53-25.002-12.295-4.383-5.913-4.677-16.767-.53-22.914z" fill="#231F20"/><path d="M311.917 202.035c5.001 6.588 13.795 9.765 21.708 9.442 6.647-.265 13.824-2.765 17.825-8.383 6.53-9.089-7.942-16.119-11.913-22.296-.941.441-2 .558-3.03.735.353-.059 1.118 4.118 1.148 4.971.294 4.706-4.266 6.236-8.001 6.265-3.853.03-7.795-2.794-9.53-6.236-.53-1.059-1.236-5.088-2.353-5.118-2.442-.059-4.971-.559-7.383-1.176 0 0 0 .029-.03.029-4.236 6.412-2.824 15.972 1.559 21.767z" fill="#C8EAF5"/><path d="M346.861 188.239c.03 3.854-3.882 4.207-7.442 3.824-.941-.117-1.058 1.589-.294 1.883 3.706 1.47 6.295 6.471 1.177 8.265-4.559 1.589-7.324-2.441-8.854-6.265-.323-.824-1.147-.5-1.382.176-2.736 7.325-13.001 4.501-10.501-3.294.206-.647-.353-1.559-1.059-1.147-7.912 4.53-8.295-5.383-4.471-10.648 1.265.206 2.53.353 3.794.412 1.118.029 1.824 4.059 2.354 5.118 1.735 3.441 5.676 6.265 9.53 6.236 3.735-.03 8.295-1.589 8-6.266-.058-.853-.794-5.029-1.147-4.971 1-.147 2.089-.294 3.03-.735 1.441 2.294 4.441 4.765 7.265 7.412z" fill="#C8EAF5"/><path d="M308.564 246.656c4.53-5.765 16.884 5.324 19.943 8.795 7.177 8.089 15.942 21.413 15.207 32.767-.294 4.677-5.706 2.265-6.53-.912-2.53-9.589-6.148-18.207-12.325-25.972-4.5-5.648-11.971-8.001-16.177-13.678-.148-.294-.324-.735-.118-1z" fill="#231F20"/><path d="M342.684 282.188c2.795-5.971 9.089-18.001 15.59-13.501 6.177 4.295.618 16.06-1.941 20.531-2.618 4.589-8.678 13.354-14.884 11.207-7.501-2.559-1.383-13.942 1.235-18.237z" fill="#231F20"/><path d="M344.655 297.954c3.706-1.353 6.589-5.618 8.736-8.765 3.295-4.736 6.501-10.913 5.442-16.854a13.847 13.847 0 00-.618-.677c-5.236-2.324-8.118 7.53-9.912 10.942-1.883 3.559-7.06 11.03-6.354 15.56.677.236 1.53.206 2.706-.206z" fill="#F5A0C5"/><path d="M340.802 297.16c-.059-1.676.647-3.265 1.412-5.03 2.118-4.824 5.059-9.295 7-14.207 1.295-3.324 4.207-7.706 7.56-7.589-1.677-1.235-3.089-1.059-4.177.53-1.736 1.912-3.736 3.471-5.295 5.589-1.264 1.735-2.382 3.588-3.441 5.471.118.176.206.382.147.558-.559 1.677-1.324 3.06-2.147 4.618-.853 1.707-2.5 7.56-1.059 10.06z" fill="#EC008C"/><path d="M356.333 240.508c2.617-6.882 17.678-.029 21.619 2.354 9.236 5.559 21.502 15.619 24.149 26.678 1.088 4.559-4.794 3.883-6.53 1.118-5.236-8.383-11.207-15.531-19.384-21.09-5.942-4.03-13.766-4.03-19.443-8.177-.235-.177-.529-.559-.411-.883z" fill="#231F20"/><path d="M399.336 264.157c.912-6.559 3.412-19.942 10.913-17.589 7.147 2.235 5.294 15.148 4.147 20.178-1.147 5.177-4.353 15.384-10.912 15.207-7.883-.235-5.413-12.942-4.148-17.796z" fill="#231F20"/><path d="M405.837 278.57c3.118-2.412 4.618-7.353 5.765-11 1.765-5.501 3-12.384.235-17.737-.294-.177-.529-.324-.794-.471-5.677-.618-5.53 9.648-6.265 13.442-.736 3.971-3.501 12.678-1.471 16.767.706.029 1.559-.236 2.53-1.001z" fill="#F5A0C5"/><path d="M401.925 278.982c-.53-1.588-.353-3.324-.118-5.235.618-5.236 2.118-10.413 2.53-15.678.264-3.559 1.735-8.648 5-9.53-1.971-.648-3.265-.089-3.824 1.764-1.118 2.354-2.559 4.442-3.412 6.942-.706 2.059-1.206 4.148-1.677 6.265.177.118.295.295.295.471-.03 1.794-.353 3.294-.706 5.059-.353 1.912-.206 8.001 1.912 9.942z" fill="#EC008C"/><path d="M287.915 49.022c2.03-3.765 9.472-.794 12.207.618 1.265.647 3.736 2.206 5.295 3.912-2.265-5.383-9.531-10.295-14.443-10.472-1-.03-1.676-1.53-.765-2.176 3.001-2.089 8.854 2.823 11.001 4.706 1.53 1.353 3.501 3.353 4.765 5.589-.411-1.942-.558-3.971-.558-5.913 0-2.323-.206-6.559 2.235-7.736.971-.47 2 1.177 1.471 1.971-2.736 4.206-1.559 10.619-.53 15.413 13.943.236 27.944-1.03 40.827 5.442 5.207 2.618 8.913 6.795 11.648 11.942 1.324 2.47 3.059 6.5 1.265 9.089-.294.412-.765-.294-.676-.588.97-4.148-3.295-9.766-5.619-12.59-4.176-5.059-11.089-7.559-17.177-9.147-9.119-2.354-18.649-.118-27.797-1.412 6.854 3.735 15.737 2.941 22.678 6.912 3.53 2.03 8.707 9.266 5.354 13.266-.353.412-.824-.324-.765-.677 2.177-10.265-11.883-12.707-18.619-13.971-4.118-.765-8.442-1.736-11.413-4.618v.117c-.5 3.706-1.412 6.324.03 10.178 1.411 3.794 6.882 9.56 11.148 9.942.47.058.706 1.117.147 1.117-4.03-.206-8.501-3.735-10.942-6.794-1.707-2.118-2.589-4.736-3.177-7.354-.559-2.382.117-4.47.559-6.56-1.442 1.148-3.295 2-4.677 3.177-3.412 2.824-3.677 6.972-2.765 11.03.676 2.942 4.5 9.09 8.148 9.06.529 0 .882 1 .264 1.118-5.559 1-9.765-7.206-10.912-11.53-.853-3.295-.177-6.707 1.47-9.59.5-.882 1.206-1.588 1.971-2.235-2.235 1.383-4.324 3.265-6.236 4.883-2.265 1.912-4.088 4.147-5.441 6.795-.942 1.853-3.412 8.971-1.265 10.883.294.265.235 1.118-.265.823-4.177-2.5-1.176-11.471.383-14.707 3.294-6.765 11-10.883 17.648-13.971-1.5-1.236-3.912-2.471-4.765-2.971-3.265-1.853-7.148-2.206-10.707-1.236-.765.206-1.323-1.147-1-1.735z" fill="#231F20"/><path d="M294.063 49.463c3.971-.588 8.647 1.5 11.383 4.383l.029-.03c1.589-3.265 3.412-9.06 7.295-10.03 3.647-.882 6.412 3.206 7.471 6.207 1 2.794 1.206 6.53-1.441 8.441-2.353 1.707-7.059 0-9.589-2.088 0 .53-.118 1.059-.441 1.5-1.236 1.647-2.618.647-3.353-.764-.677 1.117-1.442 1.97-2.677 2.853-1.559 1.088-3.765 2.676-5.765 2.441-3.354-.412-5.001-4.324-5.795-7.265-.676-2.618 0-5.207 2.883-5.648z" fill="#231F20"/><path d="M311.358 55.876c1.618.911 3.471 1.352 5.324 1.323 3.5-.088 2.942-4.824 2.059-7-.529-1.324-1.471-2.471-2.5-3.442-1.677-1.588-3.294-.882-4.853.441-1.824 1.56-2.942 3.883-4.118 6.06.294.029.617.206.882.44.412-.676 1.206-.94 1.912-1.382 1.059-.617 2.236-1.706 3.441-1.882.824-.147 1.118 1.059.765 1.588-.588.824-1.794 1.236-2.676 1.706-.5.265-1.03.618-1.559.736-.236.058-.471.117-.677.176.647.382 1.294.853 2 1.236zM306.623 54.581c.058.618-.383 1.089-.177 1.706.206.56.735.97 1.265.5.471-.44.353-1.206.147-1.735-.265-.677-.529-.736-1.177-.647h-.058c0 .03-.03.03-.03.059.03.029.03.058.03.117zM292.768 54.934c.618 2.765 2.442 6 5.648 4.736 1.088-.412 2.265-1.441 3.294-2.03.736-.44 1.265-1.059 1.736-1.676-1.647.147-3.295-.118-4.883-.56-.5-.146-.735-1.235-.029-1.117 1.97.294 4.059.735 6.059.383.088-.06.147-.148.235-.236-3.265-1.853-13.589-6.324-12.06.5z" fill="#FDE92B"/><path d="M249.073 83.086c2.684-1.556 6.372.595 8.1 2.623 1.49 1.737 3.132 4.168 3.762 6.682.11.325.151.694.198 1.035l-.007.03c.657 1.556 1.071 3.12.181 4.733-.249.458-.683.514-1.124.329-2.287-.976-3.281-3.478-5.525-4.655-1.814-.934-3.593-1.89-5.212-3.173-2.394-1.872-3.441-5.8-.373-7.604zm3.466 3.458a10.968 10.968 0 01-.09-.14c-.202-.044-.374-.081-.524-.083-1.165-.041-1.556.656-.646 1.455.581.517 1.242.66 1.917 1.016 1.242.66 2.424 1.457 3.612 2.225-1.384-1.533-2.926-2.89-4.269-4.473zM242.98 64.346c2.319-2.094 6.397-.785 8.492.792 1.818 1.356 3.92 3.398 5.052 5.675.187.302.293.62.407.98 0 0 .024.016.008.04.953 1.38 1.702 2.8 1.145 4.587-.155.497-.571.643-1.053.57-2.447-.468-3.945-2.672-6.408-3.328-1.974-.54-3.923-1.064-5.758-1.972-2.723-1.324-4.547-4.948-1.885-7.344zm4.084 2.623c-.048-.032-.081-.09-.13-.122-.188.016-.359.007-.522.04-1.167.21-1.396.977-.369 1.558.693.392 1.37.385 2.088.581 1.37.385 2.683.908 4.029 1.383-1.639-1.201-3.449-2.198-5.096-3.44zM266.63 64.468c2.385-.213 4.236 2.499 4.771 4.463.478 1.699.816 3.92.445 5.858a5.583 5.583 0 01-.189.78l-.018.024c-.059 1.288-.271 2.533-1.42 3.358-.326.232-.631.147-.899-.132-1.281-1.424-1.156-3.476-2.33-5.04-.965-1.257-1.883-2.477-2.575-3.895-1.034-2.087-.481-5.182 2.215-5.416zm1.291 3.542l-.017-.124a1.765 1.765 0 00-.345-.226c-.79-.42-1.287-.06-.942.797.241.555.639.859.993 1.315.639.86 1.207 1.812 1.769 2.723-.392-1.522-1.025-2.969-1.458-4.485zM397.012 97.408c-1.47.736-3.029 1.177-4.618 1.589-1.97.53-3.176 2.323-5.118 2.706-.382.088-.706-.059-.823-.441-.441-1.412.176-2.589.941-3.677v-.03c.088-.264.206-.53.324-.794.911-1.853 2.617-3.5 4.088-4.588 1.706-1.295 4.942-2.353 6.795-.677 2.088 1.941.588 4.853-1.589 5.912zm-5.794-1c1.059-.382 2.118-.823 3.206-1.118.588-.176 1.118-.176 1.647-.47.824-.47.647-1.088-.265-1.235-.117-.03-.294-.03-.441-.03l-.088.088c-1.294.971-2.765 1.795-4.059 2.765zM415.69 102.644c-1.617-.235-3.176-.735-4.735-1.265-1.912-.647-3.912.147-5.736-.617-.353-.148-.559-.442-.441-.853.412-1.412 1.529-2.06 2.794-2.53h.03c.235-.177.47-.353.705-.47 1.795-1.03 4.089-1.442 5.913-1.53 2.118-.118 5.412.823 6.03 3.235.676 2.765-2.177 4.354-4.56 4.03zm-4.294-4.089c1.088.265 2.206.5 3.294.853.559.177 1.03.471 1.647.53.942.088 1.118-.53.471-1.206l-.353-.265c-.029 0-.088.03-.147.03-1.647.117-3.294-.03-4.912.058zM402.425 81.848c-1.118.56-2.324.883-3.53 1.236-1.5.411-2.441 1.794-3.942 2.059-.294.058-.558-.03-.647-.353-.323-1.089.118-1.971.736-2.824v-.03c.058-.205.147-.411.264-.617.706-1.412 2.001-2.677 3.118-3.53 1.295-.97 3.795-1.794 5.207-.5 1.617 1.53.47 3.736-1.206 4.56zm-4.442-.765c.824-.294 1.618-.617 2.471-.853.441-.117.853-.117 1.265-.353.647-.352.5-.823-.206-.97-.088-.03-.206-.03-.324-.03-.029.03-.029.06-.059.06-1.029.793-2.147 1.411-3.147 2.146z" fill="#C8EAF5"/><mask id="a" maskUnits="userSpaceOnUse" x="354" y="122" width="28" height="22"><path d="M354.421 134.647c.794 5.618 7.441 9.324 14.883 8.265 7.442-1.059 12.854-6.5 12.06-12.119-.794-5.618-7.471-9.324-14.913-8.265-7.412 1.059-12.825 6.501-12.03 12.119z" fill="url(#paint0_radial)"/></mask><g mask="url(#a)"><path opacity=".3" d="M354.421 134.647c.794 5.618 7.441 9.324 14.883 8.265 7.442-1.059 12.854-6.5 12.06-12.119-.794-5.618-7.471-9.324-14.913-8.265-7.412 1.059-12.825 6.501-12.03 12.119z" fill="url(#paint1_radial)"/></g><mask id="b" maskUnits="userSpaceOnUse" x="282" y="102" width="39" height="30"><path d="M282.532 119.557c1.089 7.824 10.384 12.972 20.737 11.501 10.384-1.471 17.884-9.03 16.796-16.884-1.088-7.824-10.383-12.971-20.737-11.501-10.383 1.501-17.884 9.06-16.796 16.884z" fill="url(#paint2_radial)"/></mask><g mask="url(#b)"><path opacity=".3" d="M282.532 119.557c1.089 7.824 10.384 12.972 20.737 11.501 10.384-1.471 17.884-9.03 16.796-16.884-1.088-7.824-10.383-12.971-20.737-11.501-10.383 1.501-17.884 9.06-16.796 16.884z" fill="url(#paint3_radial)"/></g><path d="M217.273 125.252c-2.088-.206-4.5.735-6.412 2.323-.059-30.855-27.444-45.65-54.681-47.68-14.619-1.088-29.65 3.06-41.768 11.354-11.089 7.618-18.031 19.09-21.855 31.914-.853 2.912-1.47 5.854-1.941 8.795-6.119-2.206-10.766 6.148-11.09 11.648-.264 4.265.265 8.824 3.765 11.678 2.295 1.882 5.472 3.5 8.119 2.059 3.824 16.207 14.148 30.267 30.679 37.915 4.941 2.294 10.383 3.735 15.942 4.471-.676 3.765-6.265 6.853-8.765 8.794-4.265 3.324-8.324 6.854-12.001 10.854-5.795 6.265-8.736 14.296-8.501 22.884.559 18.767 19.384 31.15 36.18 33.327 17.207 2.206 35.591-7.03 41.268-24.385 6.353-19.413-5.442-39.944-18.796-53.239.118-.03.265-.059.412-.089 13.913-3.529 25.414-10.883 33.973-22.678 4.206-5.795 6.089-13.236 8.648-19.855 1.883-.352 3.647-1.058 5.03-1.97 5.53-3.795 10.03-10.089 10.883-16.855.735-5.912-3.618-10.677-9.089-11.265z" fill="#231F20"/><path d="M85.115 152.901c-2.706-1.912-3.294-5.383-3.382-8.501-.06-1.764.352-3.618.735-5.324.912-3.971 4.294-5.294 7.824-5-.912 7.089-.706 14.148.588 20.884-2.059.706-4.235-.941-5.765-2.059zM164.769 198.846c13.972 13.472 25.502 33.797 18.295 53.622-3.117 8.56-11.912 14.884-20.001 17.972-8.825 3.383-18.619 1.912-27.238-1.323-16.736-6.266-29.355-22.649-21.413-40.974 3.735-8.619 12.677-14.884 19.795-20.473 2.354-1.853 5.177-4.647 5.413-7.765 8.383.941 17.06.353 24.972-1.324.059.089.089.206.177.265z" fill="#F5E0CD"/><path d="M145.414 200.317a75.664 75.664 0 01-5.794-.383c0 .177-.059.324-.089.5 1.912.177 4.06-.088 5.883-.117zM164.769 198.846c-.088-.059-.118-.147-.147-.235-5.736 1.206-11.854 1.853-17.972 1.735.176 0 .353.03.529.03 2.618.323 5.383.853 7.707 2.206 4.294 2.471 7.088 6.5 7.706 11.53 1 8.236-1.059 16.825-9.707 19.502-8.941 2.735-18.766 1.088-27.884.5-3.824-.236-8.177-.589-12.384-.294-3.441 15.972 8.236 29.708 23.238 35.326 8.618 3.236 18.383 4.706 27.237 1.324 8.089-3.089 16.884-9.413 20.002-17.972 7.177-19.855-4.353-40.18-18.325-53.652zM222.568 141.459c-3.089 7.707-11.884 14.325-19.531 8.942-1.03-.706-2.53.971-1.853 1.971 1.441 2.176 3.882 3.059 6.471 3.147-2.324 6.148-4.177 12.619-7.707 18.178-4.088 6.501-10.589 12.089-17.06 16.001-13.384 8.089-29.12 8.766-44.063 6.324-14.765-2.412-27.649-9.589-36.65-21.913-8.236-11.266-10.118-25.561-8.706-39.151 1.441-14.001 7.265-27.855 17.737-37.238 11.03-9.883 25.796-14.06 40.268-14.236 25.972-.324 57.357 14.971 58.828 44.592-1.677 1.558-2.853 3.588-2.824 5.647 0 .265.206.471.471.382.117-.029.206-.058.323-.088.236-.059.559-.529.265-.735.059.029 1.883-2.677 1.736-2.471 2.176-3.177 5.471-3.412 8.677-2.382 5.294 1.764 5.265 8.883 3.618 13.03z" fill="#F5E0CD"/><path d="M218.95 128.429c-3.177-1.059-6.501-.795-8.677 2.382.117-.206-1.706 2.5-1.736 2.471.294.206-.029.676-.265.735-.117.03-.206.059-.323.088-.265.089-.471-.117-.471-.382-.029-2.059 1.147-4.089 2.824-5.647-.559-11.266-5.442-20.414-12.678-27.473 8.148 20.472 6.854 45.827-5.265 63.034-13.177 18.737-38.12 24.12-59.593 21.561-11.324-1.353-21.708-5.442-29.738-13.913-2.265-2.383-4.47-4.971-6.441-7.736 1.412 3.706 3.235 7.265 5.647 10.56 8.972 12.324 21.855 19.501 36.65 21.913 14.943 2.442 30.679 1.765 44.063-6.324 6.471-3.912 12.971-9.5 17.06-16.001 3.5-5.559 5.383-12.03 7.707-18.178-2.589-.088-5.03-.971-6.472-3.147-.676-1 .853-2.706 1.853-1.971 7.619 5.383 16.414-1.235 19.532-8.942 1.588-4.147 1.617-11.266-3.677-13.03z" fill="#F5E0CD"/><path d="M178.123 149.96c-7.354-4.559-18.002-2.236-25.561.47-4.648 1.677-8.913 4.412-13.354 6.589-6.589 3.265-12.913 2.942-20.002 3.118-3.441.088-7.765 1.588-9.677 4.383-2.03 2.353-2.294 5.883-.559 9.089 4.412 8.059 15.266 12.648 23.649 14.766 16.648 4.206 42.092-3.412 50.71-19.443 3.883-7.207 1.736-14.648-5.206-18.972z" fill="#231F20"/><path d="M130.854 162.52c5.589-1.089 10.442-3.677 15.443-6.324a37.306 37.306 0 013.235-1.53c-1.029 6.059-6.118 9.501-11.677 11.177-4.471 1.353-14.06 1.412-17.296-3.382 4.265-.03 8.501.382 10.295.059z" fill="#fff"/><path d="M141.561 187.316c2.5-6.56 6.824-9.736 14.119-9.707 2.706 0 8.383 1.059 10.03 3.618-6.412 3.236-13.913 5.324-20.913 6a60.077 60.077 0 01-3.236.089z" fill="#F6A7C2"/><path d="M167.298 180.403a1.022 1.022 0 01-.264.118c0-.059 0-.147-.03-.206-2.294-4.677-9.324-6-13.972-5.118-6.529 1.265-11.736 5.324-12.501 12.06-5.559-.206-10.971-1.765-16.03-4.148a61.628 61.628 0 01-8.677-4.971c-3.354-2.323-10.384-10.795-2.942-14.177.265-.118.441-.383.5-.706 1.677-.53 3.736-.735 5.854-.794 1.706 6.706 13.56 6.5 18.619 5.324 6.824-1.559 12.442-6.736 13.295-13.796 11.501-4.441 30.414-7.177 31.591 8.589.559 7.736-9.795 14.737-15.443 17.825z" fill="#FACBD6"/><path d="M218.656 136.047c-2.118.323-4.383 0-6.236 1.382-2.236 1.677-4.118 3.471-5.265 6.089-.795 1.824 1.5 2.294 2.206.706 1-2.294 2.176-4.148 4.265-5.589 1.5-1.029 3.53-.823 5.147-1.647.441-.176.53-1.03-.117-.941zM117.294 137.341c-2.147-3.383-6.589-7.412-10.912-5.295-3.53 1.736-6.06 5.295-6.442 9.295-.03.383.5.265.588 0 1.206-3.265 2.589-6.177 6.059-7.324 1.501-.5 2.971-.029 4.295.853-1.941.236-3.794 1.324-5.148 3.295-.529.764.118 1.823.942 1.059 2.912-2.736 5.853-2.442 8.5.294 1.059 1.059 2.795-1.118 2.118-2.177zM150.826 128.34c.148-4.03 1.942-9.795 6.707-10.206 3.912-.324 7.853 1.411 10.207 4.676.206.324-.295.471-.5.295-2.677-2.177-5.324-3.971-8.913-3.148-1.529.353-2.559 1.53-3.265 2.971 1.794-.794 3.942-.824 6.059.177.824.382.795 1.647-.264 1.411-3.883-.853-6.266.912-7.177 4.648-.324 1.382-2.912.441-2.854-.824zM134.707 142.9c-2.059-1.941-5.647-1.912-6.677 1.147-.5 1.471-.294 3.089.795 4.266 1.029 1.117 2.676 1.647 3.912.558.264-.235.441-.941-.118-.941-1.059 0-1.794.147-2.677-.588-.882-.736-1.088-1.912-.853-2.971.559-2.471 3.707-1.971 5.207-.882.264.147.647-.353.411-.589z" fill="#231F20"/><path d="M123.618 214.436c1.295-1.295 2.648-2.53 4.177-3.648 2.236-1.676 4.765-3.176 6.824-5.03.265-.235.5-.5.736-.764h-.089c-12.854 2.529-23.031.823-30.973-10.825-2.294-5.235-3.853-10.059-4.059-16.207-.235-6.736.971-13.56 2.383-20.119.205-.912.5-2.353.353-3.53 1.882-.441 3.47-2.647 4.353-4.147 1.882-3.207 1.588-6.589-.177-9.56-1.5-5.177-5.618-11.707-11.06-11.56-1.382.03-3.176 1.294-3.53 2.706-.264 1.118.119 1.912.766 2.618-2-.382-3.971-.059-4.942 1.912-1.588 3.206 1.265 3.53 3.706 4.412-3.118-.088-6.677.53-7.383 3.383-.676 2.765 1.824 3.412 4.236 3.53-2.059 1.117-3.647 2.559-2.118 5.294 1.824 3.206 7.324 2.442 11.06 1.441-5 15.825-6.942 35.297 3.765 49.21 4.941 6.354 13.648 10.795 21.972 10.884z" fill="#231F20"/><path d="M97.704 131.252c2.295.647 4.589 3.177 6.354 5.942-1.5-.941-3.295-1.265-4.677.235-.147.177-.324.353-.441.559.088-.206.117-.412.059-.588-.265-.824-.442-1.647-1.118-2.236a6.467 6.467 0 00-1.5-1.176c-1.647-.677-1.206-1.589 1.323-2.736z" fill="#F5E0CD"/><path d="M92.998 153.107s-8.089-1.118-3.677-4.03c.618-.412 2.5-1.029 3.383-1.588.559-.353 1.088-1.706.03-1.736-1.354-.029-2.677 0-4-.058-.472-.118-.972-.206-1.442-.295-.177-2.264.853-3.176 3.088-2.706 1.56-.206 3.148-.117 4.707.206.823.177 1.53-.794 1.176-1.559-.706-1.588-2.353-2.206-3.853-2.823-.677-.265-1.412-.383-2.118-.559.97-1.677 2.206-2.177 3.765-1.5 1.382.411 2.5 1.176 3.412 2.264.353.353.824.118 1.147-.264-.353.588-.53 1.265-.176 1.97 1.118 2.265 2.971 3.354 2.794 6.295-.059.941 1.059.353 1.265-.176.353-1.059.824-2.648.118-3.707a9.736 9.736 0 00-1.089-1.323c-.529-.471-.97-1-1.382-1.559.823-1.53 1.735-1.824 2.794-.883 4.912 3.03 5.118 11.796-.235 14.266-.265-.588-.736-1.029-1.53-1.147-.059-.294-.264-.5-.735-.382-2.56.735-4.736 1.588-7.442 1.294z" fill="#F5E0CD"/><path d="M209.773 160.108c1.411-.471 2.676-1.324 3.617-3.001.795-1.412.824-2.765.736-4.353-.235-4.412 2.235-4.089 4.324-6.412 1.176-1.324 2-3.706-.265-4.383-2.441-.706-4.53.647-6.442 2.088 1.324-2.853 3.471-6.53.147-7.647-3.176-1.059-5.412 4.353-6.765 7.853-.029-3.441 2.265-9.648-1.235-9.706-3.295-.059-4.412 4.265-4.942 8.118-.059-2.088.206-4.206-.265-6.353-.235-1.118-1.235-1.854-2.323-1.354-3.912 1.795-3.942 6.501-3.001 10.854-.529-.853-1.294-1.47-2.647-1.529-2.029-.118-2.5 2.971-2.618 4.353-.735 7.03 7.56 15.678 14.649 13.501a2.85 2.85 0 00.029 1.118c3.03 13.295 7.677 26.208-7.53 34.15-8.501 4.441-18.56 4.294-27.826 4.824-1.794.088-4.647 3.382-1.824 4.206 13.59 3.971 28.65.382 39.974-7.883 11.089-7.971 11.737-27.679 4.207-38.444z" fill="#231F20"/><path d="M189.741 149.254c-.176-4.736 2.53-1.089 3.471 1.118.559 1.294 1.324 2.117 2.53 2.676.618.294 1.794-.294 1.5-1.118a187.441 187.441 0 01-1.941-5.765 18.042 18.042 0 01-.765-4.5c-.118-1.588 2.53-7.589 2.912-2.971.294 3.471-.588 6.148 1.059 9.383.412.794 1.471-.176 1.559-.706.382-2.471.618-4.941 1.265-7.383.147-.617.353-1.206.529-1.823.677.058 1.383.117 2.059.147a21.237 21.237 0 01-.353 2.706c-.353 2.029-1.059 4.941.559 6.559.5.5 1.353.235 1.677-.382.676-1.324.764-1.559 1.264-3 .324-.824.648-1.618.971-2.442.53-2.265 1.618-2.706 3.294-1.323-.647 2.294-2.206 3.912-2.5 6.382-.117.942 1.089.795 1.589.471.411-.206.794-.5 1.147-.824 6.824-6.706 5.765-1.294 3.794.059-.941.647-2.5 1.471-3 2.589-.471 1.088-.735 1.647-.588 2.912.441 3.882-2.089 5.382-5.001 6.353a4.5 4.5 0 00-1.353.412c-.441.118-.882.235-1.323.382-.236.059-.412.206-.559.353-.736.177-1.5.353-2.236.383-1.323.059-2.941-.03-4.5-.383-3.824-2.176-6.912-6.265-7.06-10.265z" fill="#F5E0CD"/><path d="M185.976 252.733c-10.912-7.913-23.56-11.883-36.738-13.972-12.148-1.912-28.149-3.382-39.533 2.353-.058.03-.117.118-.176.177-5.824 3.765-3.647 13.119-1.03 18.207 5.148 10.06 17.384 16.59 27.679 19.414 11.736 3.206 25.208.029 35.885-5.236 6.089-3 15.737-11.295 14.06-19.355.324-.529.412-1.206-.147-1.588z" fill="#231F20"/><path d="M177.24 267.44c-3.588 3.353-8.441 5.324-12.971 6.942-8.501 3.029-18.031 3.941-26.826 1.971-11.766-2.648-39.21-19.267-27.179-34.709a56.14 56.14 0 014.501-1.236c-1.412 1.883-1.706 4.736-.883 6.795.088.206.324 0 .294-.176-.147-1.295-.147-2.618.177-3.883.353-1.353 1.147-2.206 2.088-3.089 4.648-.97 9.501-1.382 14.413-1.411-.559.588-.97 1.382-1.206 2.088-.529 1.588-.47 3.53-.117 5.147.088.412.588 0 .558-.294-.323-2.323-.029-5.647 2.412-6.559.147-.059.265-.206.383-.353 8.089.176 16.325 1.529 24.208 3.853.147.677.47 1.265.559 1.971.147 1.324-.53 2.883-.971 4.089-.177.5.412.617.588.205.559-1.264 1.059-2.559 1.265-3.941.088-.618.029-1.265-.118-1.912 5.942 1.824 11.619 4.236 16.913 7.001.03.411.03.823-.058 1.294-.206 1-.677 1.941-1.148 2.824-.264.47.353.735.618.323.588-.853 1.53-2.324 1.912-3.736 2.559 1.383 5.059 2.854 7.383 4.471 1.059 4.471-3.941 9.707-6.795 12.325z" fill="#C8EAF5"/><path d="M109.47 247.909c1.53.588 2.941-.059 4.324-1.059-.706-2.029-.353-4.706.971-6.471-1.53.353-3.03.765-4.501 1.235-1.441 1.883-2.323 3.765-2.706 5.618a62.93 62.93 0 001.912.677z" fill="#C8EAF5"/><path d="M184.064 255.086c-2.323-1.588-4.823-3.059-7.382-4.471-.383 1.412-1.324 2.883-1.912 3.736-.265.412-.883.147-.618-.324.471-.882.941-1.824 1.147-2.824a4.86 4.86 0 00.059-1.294c-5.295-2.765-10.972-5.177-16.913-7 .117.647.206 1.264.117 1.912-.206 1.382-.706 2.647-1.264 3.941-.206.412-.765.294-.589-.206.471-1.206 1.118-2.735.971-4.088-.088-.706-.412-1.324-.559-1.971-7.883-2.295-16.119-3.677-24.208-3.853-.088.147-.206.294-.382.352-2.442.883-2.736 4.207-2.412 6.56.029.294-.471.706-.559.294-.353-1.618-.412-3.559.118-5.147.235-.706.647-1.501 1.206-2.089-4.913 0-9.736.441-14.413 1.412-.942.853-1.765 1.735-2.089 3.088-.294 1.148-.323 2.295-.235 3.471 2.941-2.176 5.765-5.559 9.265-2.206 2.471 2.383 5.53 8.236 9.795 5.265 2.501-1.735 4.236-4.235 7.03-5.529 6.413-2.912 8.736 6.147 14.06 7.235 3.707.765 9.295.853 11.913 4.03 2.824 3.412-4.118 5.883-6.03 6.236-4.559.824-8.53 1.53-12.501 4.206-4.147 2.765-7.236 6.648-10.971 9.913a3.251 3.251 0 01-.353.294c.382.088.735.206 1.088.265 8.795 1.97 18.325 1.088 26.826-1.971 4.53-1.618 9.383-3.589 12.971-6.942 2.854-2.559 7.854-7.795 6.824-12.295z" fill="#C8EAF5"/><path d="M168.975 196.934c-.441-.647-1.235-.235-1.618.353-2.882.177-5.736.383-8.618.441-.618 0-1 .589-1.088 1.148-.648 5.971-4.56 10.147-10.648 10.089-6.53-.03-4.413-6.354-4.06-10.354.03-.383-.235-.618-.588-.647-1.412-.118-3.059-.589-4.324.176-.029.03-.088.059-.117.118-.059.029-.118.029-.177.088-5.412 5.059-17.384 11.442-15.001 20.914 2.324 9.177 12.472 12.206 20.737 12.883 9.765.794 19.266-4.53 25.002-12.295 4.383-5.942 4.677-16.796.5-22.914z" fill="#231F20"/><path d="M165.828 220.113c-5.001 6.588-13.796 9.765-21.708 9.442-6.648-.265-13.825-2.765-17.825-8.354-6.53-9.089 7.971-16.119 11.913-22.296.941.441 2 .559 3.029.735-.353-.059-1.117 4.118-1.147 4.971-.294 4.707 4.265 6.266 8.001 6.266 3.853.029 7.795-2.795 9.53-6.236.53-1.059 1.236-5.089 2.353-5.118 2.442-.059 4.971-.559 7.383-1.177 0 0 0 .029.03.029 4.206 6.383 2.794 15.943-1.559 21.738z" fill="#FFFAC0"/><path d="M153.827 228.201c.264-.235.529-.47.764-.705 2.383-2.412 5.736-7.56 3.265-11.06-1.647-2.324-5-1.942-7.471-2.236-4.353-.5-10.442-2.353-12.677-6.618-1.118-2.118-1.383-4.353-1.206-6.618-5.236 5.677-16.031 12.119-10.236 20.207 4.029 5.589 11.177 8.089 17.825 8.354 3.206.147 6.559-.323 9.736-1.324z" fill="#FFFAC0"/><path d="M167.298 198.375s0-.029-.029-.029c-2.383.618-4.912 1.088-7.383 1.177-1.088.029-1.824 4.059-2.353 5.118-1.736 3.441-5.677 6.236-9.53 6.236-3.736-.03-8.266-1.559-8.001-6.266.059-.853.794-5.03 1.147-4.971-.912-.147-1.853-.294-2.706-.617-.5 2.706-.529 5.529.912 7.706 2.265 3.412 6.853 5.383 10.765 5.824 5.177.588 10.09.441 10.09 7.001 0 2.618-.942 5-2.471 7.059 3.118-1.559 5.912-3.677 8-6.471 4.442-5.824 5.854-15.384 1.559-21.767z" fill="#FFFAC0"/><path d="M169.151 264.734c-4.529-5.795-16.883 5.324-19.942 8.795-7.177 8.089-15.943 21.413-15.207 32.767.294 4.677 5.706 2.265 6.559-.912 2.529-9.589 6.118-18.207 12.324-25.972 4.471-5.648 11.972-8.001 16.149-13.678.176-.294.353-.735.117-1z" fill="#231F20"/><path d="M135.031 300.296c-2.794-5.971-9.089-18.002-15.59-13.501-6.177 4.294-.588 16.06 1.942 20.531 2.618 4.588 8.677 13.354 14.883 11.206 7.501-2.588 1.412-13.971-1.235-18.236z" fill="#231F20"/><path d="M133.06 316.032c-3.706-1.353-6.559-5.647-8.736-8.765-3.294-4.736-6.5-10.913-5.412-16.854.206-.236.412-.471.618-.677 5.235-2.324 8.118 7.53 9.912 10.942 1.883 3.589 7.06 11.03 6.354 15.56-.677.235-1.559.206-2.736-.206z" fill="#1B7AC5"/><path d="M136.914 315.238c.058-1.677-.648-3.265-1.412-5.03-2.118-4.824-5.06-9.295-7.001-14.207-1.294-3.324-4.206-7.706-7.559-7.589 1.676-1.235 3.088-1.059 4.176.53 1.736 1.912 3.736 3.471 5.295 5.588 1.265 1.736 2.353 3.589 3.412 5.472-.118.176-.206.382-.147.558.559 1.677 1.324 3.03 2.147 4.618.912 1.706 2.53 7.56 1.089 10.06z" fill="#78C0F9"/><path d="M121.383 258.586c-2.618-6.883-17.678-.029-21.62 2.353-9.236 5.56-21.501 15.619-24.149 26.679-1.088 4.559 4.795 3.883 6.53 1.118 5.236-8.383 11.207-15.531 19.384-21.09 5.942-4.03 13.766-4.03 19.443-8.177.235-.177.529-.559.412-.883z" fill="#231F20"/><path d="M78.38 282.235c-.913-6.559-3.413-19.942-10.913-17.589-7.148 2.235-5.295 15.148-4.177 20.178 1.147 5.177 4.353 15.383 10.912 15.207 7.942-.235 5.442-12.942 4.177-17.796z" fill="#231F20"/><path d="M71.879 296.648c-3.118-2.412-4.618-7.353-5.795-11.001-1.735-5.5-3-12.383-.235-17.736.264-.177.53-.324.794-.471 5.677-.618 5.53 9.648 6.236 13.442.735 3.971 3.5 12.678 1.5 16.766-.677.03-1.5-.235-2.5-1z" fill="#1B7AC5"/><path d="M75.79 297.06c.53-1.588.354-3.324.118-5.236-.617-5.235-2.117-10.383-2.5-15.677-.264-3.559-1.765-8.648-5-9.531 1.97-.647 3.265-.088 3.824 1.765 1.117 2.353 2.559 4.442 3.412 6.942.706 2.059 1.206 4.147 1.647 6.265-.177.118-.294.294-.294.471.03 1.765.353 3.294.706 5.059.353 1.912.206 8.001-1.912 9.942z" fill="#78C0F9"/><path d="M234.172 114.664c-1.147-2.882-5.376-3.471-7.989-2.944-2.245.444-5.037 1.34-7.087 2.927-.287.187-.548.452-.795.692l-.013.026c-1.478.818-2.797 1.778-3.068 3.61-.087.514.219.826.681.953 2.4.647 4.728-.706 7.246-.232 2.003.388 3.993.736 6.059.728 3.012-.004 6.289-2.432 4.966-5.76zm-4.835.589c.066-.001.118-.041.157-.054.186.09.344.167.464.258.941.688.817 1.478-.393 1.543-.775.048-1.383-.249-2.135-.386-1.383-.249-2.805-.353-4.214-.483 2.009-.363 4.086-.463 6.121-.878zM245.66 100.069c-1.122-2.917-5.351-3.592-7.962-3.13-2.234.388-5.037 1.23-7.101 2.782-.275.18-.542.42-.806.689 0 0-.029.004-.026.033-1.473.8-2.784 1.728-3.066 3.569-.086.514.219.833.682.984 2.394.69 4.727-.599 7.22-.07 2.005.411 3.981.824 6.028.845 3.057.046 6.322-2.362 5.031-5.702zm-4.859.496c.059-.007.114-.043.172-.05.16.099.317.169.477.268.916.719.803 1.503-.376 1.556-.795.037-1.396-.276-2.125-.425-1.396-.276-2.804-.403-4.189-.591 1.942-.353 4.04-.398 6.041-.758zM242.902 131.006c.426-2.356-2.109-4.442-4.018-5.151-1.649-.628-3.831-1.164-5.819-.952a5.486 5.486 0 00-.794.119l-.025.015c-1.288-.056-2.547.043-3.472 1.114-.26.303-.187.64.051.907 1.304 1.403 3.359 1.462 4.811 2.771 1.149 1.049 2.298 2.098 3.649 2.915 2.026 1.225 5.143.927 5.617-1.738zm-3.397-1.577l.122.027c.079.125.157.249.195.364.347.825-.056 1.288-.878.868-.532-.291-.799-.714-1.221-1.108-.799-.713-1.696-1.364-2.554-2.006 1.465.502 2.865 1.288 4.336 1.855zM80.703 115.486c1.47.736 3.03 1.177 4.618 1.589 1.97.529 3.177 2.323 5.118 2.706.383.088.706-.059.824-.441.44-1.412-.177-2.559-.942-3.677v-.03c-.088-.264-.206-.529-.323-.794-.912-1.853-2.618-3.5-4.089-4.588-1.706-1.295-4.941-2.354-6.794-.677-2.089 1.941-.589 4.853 1.588 5.912zm5.795-1c-1.06-.382-2.118-.823-3.207-1.118-.588-.176-1.117-.176-1.647-.47-.823-.471-.647-1.088.265-1.265.118-.029.265-.029.441-.029l.088.088c1.295 1 2.765 1.824 4.06 2.794zM62.054 120.722c1.618-.235 3.177-.735 4.707-1.265 1.941-.647 3.912.147 5.735-.618.353-.147.56-.441.442-.853-.412-1.411-1.56-2.059-2.795-2.529h-.03c-.234-.177-.47-.353-.705-.471-1.765-1.029-4.089-1.441-5.912-1.529-2.118-.118-5.413.823-6.03 3.235-.647 2.765 2.176 4.354 4.588 4.03zm4.295-4.089c-1.089.265-2.206.5-3.295.853-.558.177-1.029.471-1.647.53-.941.088-1.147-.53-.47-1.206.088-.088.206-.177.353-.265.029 0 .088.03.117.03 1.648.117 3.295-.03 4.942.058zM75.32 99.926c1.147.559 2.324.883 3.53 1.236 1.5.411 2.441 1.794 3.941 2.059.294.058.53-.03.648-.353.323-1.089-.148-1.971-.736-2.824a2.12 2.12 0 00-.265-.588c-.706-1.412-2-2.677-3.118-3.53-1.323-.97-3.794-1.794-5.206-.5-1.618 1.47-.47 3.677 1.206 4.5zm4.442-.765c-.824-.294-1.618-.617-2.471-.853-.441-.117-.853-.117-1.265-.353-.647-.353-.5-.823.206-.97.088-.03.206-.03.324-.03.029.03.029.06.058.06 1.03.793 2.148 1.411 3.148 2.146z" fill="#C8EAF5"/><path d="M141.355 92.602c-1.235.265-2.53.324-3.794.265-7.119-.442-14.237-5.795-17.561-11.913-2.588-4.736-1.353-10.471 3.383-13.119 3.941-2.206 9.295-1.235 13.295.324.441.176 1.206-.5.647-.765-8.471-3.883-21.001-1.97-21.207 9.59-.177 11.088 16.001 20.148 25.414 16.295.441-.206.294-.765-.177-.677zM132.796 96.043c-7.648 1.03-24.238.471-26.12-9.294-.177-1-1.5-.412-1.736.264-4.147 12.207 22.355 11.53 27.914 9.442.177-.088.206-.44-.058-.412z" fill="#231F20"/><path d="M149.679 220.848c.147.176.324.206.471.147.176-.265.323-.647.471-1.088-.089-1.206.294-2.236.617-3.353.059-.53.118-1.03.147-1.501-.088-.176-.264-.294-.617-.176-1.589.5-3.03 1.441-4.413 2.412-.235-.235-.47-.471-.647-.618-1.264-1.147-3.029-1.676-4.647-2.176-2.971-.942-6.589.117-7.589 3.353-.971 3.147 3.824 4.618 5.942 4.559 2.529-.059 5.03-1.53 7.353-3.147.118.088.206.147.324.235.765.529 1.618 1.118 2.529 1.235.03 0 .03.059.059.118zm-6.383-1.53c-1.676.971-3.47 1.412-5.382.971-.971-.235-1.824-.823-2.471-1.559-1.765-2.059 2.647-2.912 3.353-2.912 2.353-.029 4.412 1.059 6.324 2.294-.588.412-1.176.853-1.824 1.206zm4.442-.764a79.768 79.768 0 012.471-1.736c-.412.912-.853 1.971-.883 2.883-.529-.265-1.088-.706-1.588-1.147z" fill="#F07D49"/><path d="M139.12 217.406c-.471 0-.795.912-.236.912.471.03.794-.912.236-.912z" fill="#F07D49"/><mask id="c" maskUnits="userSpaceOnUse" x="98" y="140" width="28" height="22"><path d="M125.854 153.195c-.794 5.618-7.442 9.325-14.913 8.266-7.442-1.059-12.854-6.501-12.06-12.119.794-5.618 7.442-9.324 14.884-8.265 7.471 1.088 12.883 6.5 12.089 12.118z" fill="url(#paint4_radial)"/></mask><g mask="url(#c)"><path opacity=".3" d="M125.854 153.195c-.794 5.618-7.442 9.325-14.913 8.266-7.442-1.059-12.854-6.501-12.06-12.119.794-5.618 7.442-9.324 14.884-8.265 7.471 1.088 12.883 6.5 12.089 12.118z" fill="url(#paint5_radial)"/></g><mask id="d" maskUnits="userSpaceOnUse" x="160" y="121" width="38" height="29"><path d="M197.772 138.135c-1.089 7.824-10.384 12.972-20.738 11.501-10.353-1.5-17.883-9.03-16.795-16.884 1.088-7.824 10.383-12.971 20.737-11.501 10.354 1.501 17.884 9.031 16.796 16.884z" fill="url(#paint6_radial)"/></mask><g mask="url(#d)"><path opacity=".3" d="M197.772 138.135c-1.089 7.824-10.384 12.972-20.738 11.501-10.353-1.5-17.883-9.03-16.795-16.884 1.088-7.824 10.383-12.971 20.737-11.501 10.354 1.501 17.884 9.031 16.796 16.884z" fill="url(#paint7_radial)"/></g><defs><radialGradient id="paint0_radial" cx="0" cy="0" r="1" gradientUnits="userSpaceOnUse" gradientTransform="rotate(148.021 164.817 118.902) scale(12.7393 12.8259)"><stop offset=".112" stop-color="#fff"/><stop offset="1"/></radialGradient><radialGradient id="paint1_radial" cx="0" cy="0" r="1" gradientUnits="userSpaceOnUse" gradientTransform="rotate(148.021 164.817 118.902) scale(12.7393 12.8259)"><stop offset=".112" stop-color="#FF6F9B"/><stop offset="1" stop-color="#fff"/></radialGradient><radialGradient id="paint2_radial" cx="0" cy="0" r="1" gradientUnits="userSpaceOnUse" gradientTransform="rotate(148.021 133.732 101.376) scale(17.7374 17.8579)"><stop offset=".112" stop-color="#fff"/><stop offset="1"/></radialGradient><radialGradient id="paint3_radial" cx="0" cy="0" r="1" gradientUnits="userSpaceOnUse" gradientTransform="rotate(148.021 133.732 101.376) scale(17.7374 17.8579)"><stop offset=".112" stop-color="#FF6F9B"/><stop offset="1" stop-color="#fff"/></radialGradient><radialGradient id="paint4_radial" cx="0" cy="0" r="1" gradientUnits="userSpaceOnUse" gradientTransform="rotate(31.979 -207.198 272.15) scale(12.7387 12.8253)"><stop offset=".112" stop-color="#fff"/><stop offset="1"/></radialGradient><radialGradient id="paint5_radial" cx="0" cy="0" r="1" gradientUnits="userSpaceOnUse" gradientTransform="rotate(31.979 -207.198 272.15) scale(12.7387 12.8253)"><stop offset=".112" stop-color="#FF6F9B"/><stop offset="1" stop-color="#fff"/></radialGradient><radialGradient id="paint6_radial" cx="0" cy="0" r="1" gradientUnits="userSpaceOnUse" gradientTransform="rotate(31.979 -146.032 380.626) scale(17.7359 17.8564)"><stop offset=".112" stop-color="#fff"/><stop offset="1"/></radialGradient><radialGradient id="paint7_radial" cx="0" cy="0" r="1" gradientUnits="userSpaceOnUse" gradientTransform="rotate(31.979 -146.032 380.626) scale(17.7359 17.8564)"><stop offset=".112" stop-color="#FF6F9B"/><stop offset="1" stop-color="#fff"/></radialGradient></defs></svg>